<?xml version="1.0" encoding="UTF-8" standalone="no"?>
<!DOCTYPE svg PUBLIC "-//W3C//DTD SVG 1.1//EN" "http://www.w3.org/Graphics/SVG/1.1/DTD/svg11.dtd">
<svg width="100%" height="100%" viewBox="0 0 396 396" version="1.1" xmlns="http://www.w3.org/2000/svg" xmlns:xlink="http://www.w3.org/1999/xlink" xml:space="preserve" xmlns:serif="http://www.serif.com/" style="fill-rule:evenodd;clip-rule:evenodd;stroke-linecap:round;stroke-linejoin:round;stroke-miterlimit:1.5;">
    <g transform="matrix(1,0,0,1,-76.156523,-11.364039)">
        <g id="Rectangle-small" serif:id="Rectangle small" transform="matrix(0.894475,0,0,0.769345,28.885666,-3.000033)">
            <path d="M494.68,95.955L494.68,455.352C494.68,497.857 464.999,532.365 428.44,532.365L119.321,532.365C82.762,532.365 53.081,497.857 53.081,455.352L53.081,95.955C53.081,53.45 82.762,18.941 119.321,18.941L428.44,18.941C464.999,18.941 494.68,53.45 494.68,95.955Z" style="fill:white;stroke:rgb(101,138,99);stroke-opacity:0;stroke-width:0.5px;"/>
        </g>
        <g transform="matrix(1.048677,0,0,1.048677,-11.564163,-16.25086)">
            <g transform="matrix(1.764838,0,0,1.764838,-1887.51854,-1171.783674)">
                <circle cx="1223.738" cy="785.708" r="102.732" style="fill:white;fill-opacity:0;stroke:rgb(101,138,99);stroke-width:4.5px;"/>
            </g>
            <g transform="matrix(0.89559,0,0,0.89559,26.863587,22.433939)">
                <path d="M240.328,376.427C240.328,376.427 251.431,354.758 261.444,330.02C268.918,311.553 272.623,290.484 275.954,276C283.938,241.287 331.042,204.855 335.826,203.015C338.287,202.069 360.295,189.819 390.182,184.358C400.6,182.455 409.812,180.306 415.057,177.075C422.169,172.694 423.376,167.335 423.376,167.335C423.376,167.335 426.457,159.307 421.966,148.039C418.391,139.068 405.5,123.887 399.546,116.613C395.732,111.953 386.242,104.391 386.242,104.391C386.242,104.391 351.205,74.079 334.192,66.613C317.557,59.313 309.207,49.837 292.916,58.231C279.875,64.95 281.786,102.552 280.997,109.962C279.983,119.483 274.695,121.989 274.054,122.761C273.413,123.533 270.007,118.532 269.236,101.746C268.464,84.961 270.798,72.904 261.711,60.361C252.932,48.244 233.609,53.653 219.042,62.186C214.579,64.8 184.402,76.756 170.132,88.568C155.481,100.697 131.131,134.959 131.131,134.959C131.131,134.959 123.142,148.223 123.745,156.966C124.348,165.708 124.8,168.271 151.782,176.26C178.763,184.248 190.369,187.263 214.939,203.09C239.508,218.917 237.853,215.483 252.132,229.506C266.828,243.939 269.504,262.366 271.313,281.17C272.987,298.58 270.577,299.285 270.577,299.285" style="fill:none;stroke:rgb(101,138,99);stroke-width:8.87px;"/>
            </g>
            <g transform="matrix(0.89559,0,0,0.89559,26.863587,22.433939)">
                <path d="M278.49,276C278.49,278.449 276.503,280.436 274.054,280.436C271.605,280.436 269.618,278.449 269.618,276L269.618,142.643C269.618,140.194 271.605,138.207 274.054,138.207C276.503,138.207 278.49,140.194 278.49,142.643L278.49,276Z" style="fill:rgb(101,138,99);"/>
            </g>
            <g transform="matrix(0.89559,0,0,0.89559,26.863587,22.433939)">
                <path d="M274.054,237.641C274.054,237.641 262.823,130.376 209.002,109.801" style="fill:none;stroke:rgb(101,138,99);stroke-width:8.87px;"/>
            </g>
            <g transform="matrix(0.89559,0,0,0.89559,26.863587,22.433939)">
                <path d="M273.916,244.968C250.876,199.138 215.115,173.665 168.207,155.471" style="fill:none;stroke:rgb(101,138,99);stroke-width:8.87px;"/>
            </g>
            <g transform="matrix(0.89559,0,0,0.89559,26.863587,22.433939)">
                <path d="M376.642,162.333C374.064,161.732 340.047,171.029 315.824,192.185C290.918,213.94 273.916,248.972 273.916,248.972" style="fill:none;stroke:rgb(101,138,99);stroke-width:8.87px;"/>
            </g>
            <g transform="matrix(0.89559,0,0,0.89559,26.863587,22.433939)">
                <path d="M274.054,214.864C292.407,165.512 321.155,122.412 347.908,109.801" style="fill:none;stroke:rgb(101,138,99);stroke-width:8.87px;"/>
            </g>
        </g>
    </g>
</svg>
